<?xml version="1.0" encoding="UTF-8"?>
<svg width="40px" height="40px" viewBox="0 0 40 40" version="1.1" xmlns="http://www.w3.org/2000/svg" xmlns:xlink="http://www.w3.org/1999/xlink">
    <!-- Generator: Sketch 51 (57462) - http://www.bohemiancoding.com/sketch -->
    <title>Artboard 4</title>
    <desc>Created with Sketch.</desc>
    <defs></defs>
    <g id="Artboard-4" stroke="none" stroke-width="1" fill="none" fill-rule="evenodd">
        <g id="Group">
            <circle id="Oval" fill="#FFEB3B" cx="20" cy="20" r="20"></circle>
            <g id="chevron-up" transform="translate(10.769231, 13.046154)" fill="#13022C" fill-rule="nonzero">
                <path d="M19.0943613,10.218477 C18.3564861,10.924838 17.3292148,10.9802699 16.4271793,10.218477 L9.81338017,4.28409491 L3.19958107,10.218477 C2.29754553,10.9802699 1.2685819,10.924838 0.535783792,10.218477 C-0.202091439,9.51369986 -0.154704956,8.32270564 0.535783792,7.66069024 C1.22288779,6.99867483 8.48148153,0.530562586 8.48148153,0.530562586 C8.84872677,0.177382118 9.33105347,0 9.81338017,0 C10.2957069,0 10.7780336,0.177382118 11.1486636,0.530562586 C11.1486636,0.530562586 18.4038725,6.99867483 19.0943613,7.66069024 C19.7865424,8.32270564 19.8322365,9.51369986 19.0943613,10.218477 Z" id="Shape"></path>
            </g>
        </g>
    </g>
</svg>